# xmcd
#
# Track frame offsets:
#	150
#	17515
#	36047
#	37970
#
# Disc length: 621 seconds
#
# Revision: 0
# Processed by: cddbd v1.5.1PL2 Copyright (c) Steve Scherf et al.
# Submitted via: dBpowerAMP V4.0
#
DISCID=21026b04
DTITLE=Sara Evans - Three Chords and the Truth
DYEAR=1997
DGENRE=Country
TTITLE0=Three Chords and the Truth (Edit)
TTITLE1=Three Chords and the Truth (Album Version)
TTITLE2=Hook
TTITLE3=Sara Evans Minute
EXTD=Promo CD Single
EXTT0=
EXTT1=
EXTT2=
EXTT3=
PLAYORDER=
